<mxfile host="app.diagrams.net" modified="2023-11-21T14:33:25.709Z" agent="Mozilla/5.0 (Windows NT 10.0; Win64; x64) AppleWebKit/537.36 (KHTML, like Gecko) Chrome/119.0.0.0 Safari/537.36" etag="uAQE153Uz7LFpTTeqVRT" version="22.1.3" type="device">
  <diagram id="tVwhw5ysue53fL6Bu327" name="Design ADRemove Account Computer">
    <mxGraphModel dx="1235" dy="1738" grid="1" gridSize="10" guides="1" tooltips="1" connect="1" arrows="1" fold="1" page="1" pageScale="1" pageWidth="850" pageHeight="1100" math="0" shadow="0">
      <root>
        <mxCell id="0" />
        <mxCell id="1" parent="0" />
        <mxCell id="AuBCLQnb-2w3E6iwcC4Q-17" style="edgeStyle=orthogonalEdgeStyle;rounded=0;orthogonalLoop=1;jettySize=auto;html=1;entryX=0.5;entryY=1;entryDx=0;entryDy=0;entryPerimeter=0;" parent="1" source="AuBCLQnb-2w3E6iwcC4Q-6" edge="1" target="4wVRGcLcIKmIq5gL6pOX-2">
          <mxGeometry relative="1" as="geometry">
            <mxPoint x="720.0588235294117" y="-461.22879649641686" as="targetPoint" />
          </mxGeometry>
        </mxCell>
        <mxCell id="oK9KnU9zgvsyeJ7xZBO_-1" value="AWS Account" style="points=[[0,0],[0.25,0],[0.5,0],[0.75,0],[1,0],[1,0.25],[1,0.5],[1,0.75],[1,1],[0.75,1],[0.5,1],[0.25,1],[0,1],[0,0.75],[0,0.5],[0,0.25]];outlineConnect=0;gradientColor=none;html=1;whiteSpace=wrap;fontSize=12;fontStyle=0;container=1;pointerEvents=0;collapsible=0;recursiveResize=0;shape=mxgraph.aws4.group;grIcon=mxgraph.aws4.group_account;strokeColor=#CD2264;fillColor=none;verticalAlign=top;align=left;spacingLeft=30;fontColor=#CD2264;dashed=0;" parent="1" vertex="1">
          <mxGeometry x="150" y="-600" width="1210" height="600" as="geometry" />
        </mxCell>
        <mxCell id="cPfWiGYEwuANI0NL3AHa-8" value="us-east-1" style="sketch=0;outlineConnect=0;gradientColor=none;html=1;whiteSpace=wrap;fontSize=12;fontStyle=0;shape=mxgraph.aws4.group;grIcon=mxgraph.aws4.group_region;strokeColor=#879196;fillColor=none;verticalAlign=top;align=left;spacingLeft=30;fontColor=#879196;dashed=1;" parent="oK9KnU9zgvsyeJ7xZBO_-1" vertex="1">
          <mxGeometry x="40" y="30" width="1040" height="560" as="geometry" />
        </mxCell>
        <mxCell id="cPfWiGYEwuANI0NL3AHa-3" value="Private subnet" style="points=[[0,0],[0.25,0],[0.5,0],[0.75,0],[1,0],[1,0.25],[1,0.5],[1,0.75],[1,1],[0.75,1],[0.5,1],[0.25,1],[0,1],[0,0.75],[0,0.5],[0,0.25]];outlineConnect=0;gradientColor=none;html=1;whiteSpace=wrap;fontSize=12;fontStyle=0;container=1;pointerEvents=0;collapsible=0;recursiveResize=0;shape=mxgraph.aws4.group;grIcon=mxgraph.aws4.group_security_group;grStroke=0;strokeColor=#147EBA;fillColor=#E6F2F8;verticalAlign=top;align=left;spacingLeft=30;fontColor=#147EBA;dashed=0;" parent="oK9KnU9zgvsyeJ7xZBO_-1" vertex="1">
          <mxGeometry x="490" y="200" width="160" height="140" as="geometry" />
        </mxCell>
        <mxCell id="ZA9tGzA6PP7hEsJ_wA2e-1" value="Lambda Artifact &lt;br&gt;Bucket" style="sketch=0;points=[[0,0,0],[0.25,0,0],[0.5,0,0],[0.75,0,0],[1,0,0],[0,1,0],[0.25,1,0],[0.5,1,0],[0.75,1,0],[1,1,0],[0,0.25,0],[0,0.5,0],[0,0.75,0],[1,0.25,0],[1,0.5,0],[1,0.75,0]];outlineConnect=0;fontColor=#232F3E;gradientColor=#60A337;gradientDirection=north;fillColor=#277116;strokeColor=#ffffff;dashed=0;verticalLabelPosition=bottom;verticalAlign=top;align=center;html=1;fontSize=12;fontStyle=0;aspect=fixed;shape=mxgraph.aws4.resourceIcon;resIcon=mxgraph.aws4.s3;" parent="oK9KnU9zgvsyeJ7xZBO_-1" vertex="1">
          <mxGeometry x="900" y="60" width="60" height="60" as="geometry" />
        </mxCell>
        <mxCell id="ZA9tGzA6PP7hEsJ_wA2e-4" value="Amazon &lt;br&gt;CloudWatch" style="sketch=0;points=[[0,0,0],[0.25,0,0],[0.5,0,0],[0.75,0,0],[1,0,0],[0,1,0],[0.25,1,0],[0.5,1,0],[0.75,1,0],[1,1,0],[0,0.25,0],[0,0.5,0],[0,0.75,0],[1,0.25,0],[1,0.5,0],[1,0.75,0]];points=[[0,0,0],[0.25,0,0],[0.5,0,0],[0.75,0,0],[1,0,0],[0,1,0],[0.25,1,0],[0.5,1,0],[0.75,1,0],[1,1,0],[0,0.25,0],[0,0.5,0],[0,0.75,0],[1,0.25,0],[1,0.5,0],[1,0.75,0]];outlineConnect=0;fontColor=#232F3E;gradientColor=#F34482;gradientDirection=north;fillColor=#BC1356;strokeColor=#ffffff;dashed=0;verticalLabelPosition=bottom;verticalAlign=top;align=center;html=1;fontSize=12;fontStyle=0;aspect=fixed;shape=mxgraph.aws4.resourceIcon;resIcon=mxgraph.aws4.cloudwatch_2;" parent="oK9KnU9zgvsyeJ7xZBO_-1" vertex="1">
          <mxGeometry x="800" y="60" width="60" height="60" as="geometry" />
        </mxCell>
        <mxCell id="ZA9tGzA6PP7hEsJ_wA2e-5" value="Identity and Access&lt;br&gt;Management" style="sketch=0;points=[[0,0,0],[0.25,0,0],[0.5,0,0],[0.75,0,0],[1,0,0],[0,1,0],[0.25,1,0],[0.5,1,0],[0.75,1,0],[1,1,0],[0,0.25,0],[0,0.5,0],[0,0.75,0],[1,0.25,0],[1,0.5,0],[1,0.75,0]];outlineConnect=0;fontColor=#232F3E;gradientColor=#F54749;gradientDirection=north;fillColor=#C7131F;strokeColor=#ffffff;dashed=0;verticalLabelPosition=bottom;verticalAlign=top;align=center;html=1;fontSize=12;fontStyle=0;aspect=fixed;shape=mxgraph.aws4.resourceIcon;resIcon=mxgraph.aws4.identity_and_access_management;" parent="oK9KnU9zgvsyeJ7xZBO_-1" vertex="1">
          <mxGeometry x="1120" y="60" width="60" height="60" as="geometry" />
        </mxCell>
        <mxCell id="ZA9tGzA6PP7hEsJ_wA2e-6" value="Key Management&lt;br&gt;Service" style="sketch=0;points=[[0,0,0],[0.25,0,0],[0.5,0,0],[0.75,0,0],[1,0,0],[0,1,0],[0.25,1,0],[0.5,1,0],[0.75,1,0],[1,1,0],[0,0.25,0],[0,0.5,0],[0,0.75,0],[1,0.25,0],[1,0.5,0],[1,0.75,0]];outlineConnect=0;fontColor=#232F3E;gradientColor=#F54749;gradientDirection=north;fillColor=#C7131F;strokeColor=#ffffff;dashed=0;verticalLabelPosition=bottom;verticalAlign=top;align=center;html=1;fontSize=12;fontStyle=0;aspect=fixed;shape=mxgraph.aws4.resourceIcon;resIcon=mxgraph.aws4.key_management_service;" parent="oK9KnU9zgvsyeJ7xZBO_-1" vertex="1">
          <mxGeometry x="700" y="60" width="60" height="60" as="geometry" />
        </mxCell>
        <mxCell id="AuBCLQnb-2w3E6iwcC4Q-24" value="" style="rounded=1;arcSize=10;dashed=1;strokeColor=#ff0000;fillColor=none;gradientColor=none;dashPattern=8 4;strokeWidth=2;" parent="oK9KnU9zgvsyeJ7xZBO_-1" vertex="1">
          <mxGeometry x="870" y="185.25" width="170" height="169.5" as="geometry" />
        </mxCell>
        <mxCell id="AuBCLQnb-2w3E6iwcC4Q-23" value="Managed AD" style="outlineConnect=0;dashed=0;verticalLabelPosition=bottom;verticalAlign=top;align=center;html=1;shape=mxgraph.aws3.directory_service;fillColor=#759C3E;gradientColor=none;fontSize=12;" parent="oK9KnU9zgvsyeJ7xZBO_-1" vertex="1">
          <mxGeometry x="930" y="235" width="61.87" height="60" as="geometry" />
        </mxCell>
        <mxCell id="il_ZNC18QWdED-G7FHk6-2" value="Public subnet" style="points=[[0,0],[0.25,0],[0.5,0],[0.75,0],[1,0],[1,0.25],[1,0.5],[1,0.75],[1,1],[0.75,1],[0.5,1],[0.25,1],[0,1],[0,0.75],[0,0.5],[0,0.25]];outlineConnect=0;gradientColor=none;html=1;whiteSpace=wrap;fontSize=12;fontStyle=0;container=1;pointerEvents=0;collapsible=0;recursiveResize=0;shape=mxgraph.aws4.group;grIcon=mxgraph.aws4.group_security_group;grStroke=0;strokeColor=#248814;fillColor=#E9F3E6;verticalAlign=top;align=left;spacingLeft=30;fontColor=#248814;dashed=0;" parent="oK9KnU9zgvsyeJ7xZBO_-1" vertex="1">
          <mxGeometry x="680" y="200" width="150" height="140" as="geometry" />
        </mxCell>
        <mxCell id="il_ZNC18QWdED-G7FHk6-3" value="NAT Gateway" style="outlineConnect=0;dashed=0;verticalLabelPosition=bottom;verticalAlign=top;align=center;html=1;shape=mxgraph.aws3.vpc_nat_gateway;fillColor=#F58536;gradientColor=none;" parent="il_ZNC18QWdED-G7FHk6-2" vertex="1">
          <mxGeometry x="40" y="29" width="69" height="72" as="geometry" />
        </mxCell>
        <mxCell id="dDT19QIDYoVKKjMxZ3qm-8" style="edgeStyle=orthogonalEdgeStyle;rounded=0;orthogonalLoop=1;jettySize=auto;html=1;entryX=0;entryY=0.5;entryDx=0;entryDy=0;entryPerimeter=0;" parent="oK9KnU9zgvsyeJ7xZBO_-1" source="il_ZNC18QWdED-G7FHk6-3" target="AuBCLQnb-2w3E6iwcC4Q-23" edge="1">
          <mxGeometry relative="1" as="geometry" />
        </mxCell>
        <mxCell id="dDT19QIDYoVKKjMxZ3qm-5" value="AD Credentials" style="sketch=0;points=[[0,0,0],[0.25,0,0],[0.5,0,0],[0.75,0,0],[1,0,0],[0,1,0],[0.25,1,0],[0.5,1,0],[0.75,1,0],[1,1,0],[0,0.25,0],[0,0.5,0],[0,0.75,0],[1,0.25,0],[1,0.5,0],[1,0.75,0]];outlineConnect=0;fontColor=#232F3E;gradientColor=#F54749;gradientDirection=north;fillColor=#C7131F;strokeColor=#ffffff;dashed=0;verticalLabelPosition=bottom;verticalAlign=top;align=center;html=1;fontSize=12;fontStyle=0;aspect=fixed;shape=mxgraph.aws4.resourceIcon;resIcon=mxgraph.aws4.secrets_manager;" parent="oK9KnU9zgvsyeJ7xZBO_-1" vertex="1">
          <mxGeometry x="540" y="500" width="60" height="60" as="geometry" />
        </mxCell>
        <mxCell id="il_ZNC18QWdED-G7FHk6-8" value="Internet Gateway" style="sketch=0;outlineConnect=0;fontColor=#232F3E;gradientColor=none;fillColor=#4D27AA;strokeColor=none;dashed=0;verticalLabelPosition=bottom;verticalAlign=top;align=center;html=1;fontSize=12;fontStyle=0;aspect=fixed;pointerEvents=1;shape=mxgraph.aws4.internet_gateway;" parent="oK9KnU9zgvsyeJ7xZBO_-1" vertex="1">
          <mxGeometry x="716" y="360" width="78" height="78" as="geometry" />
        </mxCell>
        <mxCell id="il_ZNC18QWdED-G7FHk6-9" style="edgeStyle=orthogonalEdgeStyle;rounded=0;orthogonalLoop=1;jettySize=auto;html=1;" parent="oK9KnU9zgvsyeJ7xZBO_-1" source="il_ZNC18QWdED-G7FHk6-3" target="il_ZNC18QWdED-G7FHk6-8" edge="1">
          <mxGeometry relative="1" as="geometry" />
        </mxCell>
        <mxCell id="il_ZNC18QWdED-G7FHk6-10" value="&lt;div&gt;Private&lt;/div&gt;&lt;div&gt;Route Table&lt;br&gt;&lt;/div&gt;" style="sketch=0;outlineConnect=0;fontColor=#232F3E;gradientColor=none;fillColor=#4D27AA;strokeColor=none;dashed=0;verticalLabelPosition=bottom;verticalAlign=top;align=center;html=1;fontSize=12;fontStyle=0;aspect=fixed;pointerEvents=1;shape=mxgraph.aws4.route_table;" parent="oK9KnU9zgvsyeJ7xZBO_-1" vertex="1">
          <mxGeometry x="610" y="320" width="49.26" height="48" as="geometry" />
        </mxCell>
        <mxCell id="il_ZNC18QWdED-G7FHk6-11" value="&lt;div&gt;Public&lt;/div&gt;&lt;div&gt;Route Table&lt;br&gt;&lt;/div&gt;" style="sketch=0;outlineConnect=0;fontColor=#232F3E;gradientColor=none;fillColor=#4D27AA;strokeColor=none;dashed=0;verticalLabelPosition=bottom;verticalAlign=top;align=center;html=1;fontSize=12;fontStyle=0;aspect=fixed;pointerEvents=1;shape=mxgraph.aws4.route_table;" parent="oK9KnU9zgvsyeJ7xZBO_-1" vertex="1">
          <mxGeometry x="805.37" y="312" width="49.26" height="48" as="geometry" />
        </mxCell>
        <mxCell id="4wVRGcLcIKmIq5gL6pOX-1" value="AWS WorkSpaces" style="sketch=0;points=[[0,0,0],[0.25,0,0],[0.5,0,0],[0.75,0,0],[1,0,0],[0,1,0],[0.25,1,0],[0.5,1,0],[0.75,1,0],[1,1,0],[0,0.25,0],[0,0.5,0],[0,0.75,0],[1,0.25,0],[1,0.5,0],[1,0.75,0]];outlineConnect=0;fontColor=#232F3E;fillColor=#01A88D;strokeColor=#ffffff;dashed=0;verticalLabelPosition=bottom;verticalAlign=top;align=center;html=1;fontSize=12;fontStyle=0;aspect=fixed;shape=mxgraph.aws4.resourceIcon;resIcon=mxgraph.aws4.workspaces;" vertex="1" parent="oK9KnU9zgvsyeJ7xZBO_-1">
          <mxGeometry x="205" y="80" width="70" height="70" as="geometry" />
        </mxCell>
        <mxCell id="4wVRGcLcIKmIq5gL6pOX-2" value="Workspace&lt;br style=&quot;border-color: var(--border-color);&quot;&gt;Computer Name" style="sketch=0;points=[[0,0,0],[0.25,0,0],[0.5,0,0],[0.75,0,0],[1,0,0],[0,1,0],[0.25,1,0],[0.5,1,0],[0.75,1,0],[1,1,0],[0,0.25,0],[0,0.5,0],[0,0.75,0],[1,0.25,0],[1,0.5,0],[1,0.75,0]];outlineConnect=0;fontColor=#232F3E;fillColor=#01A88D;strokeColor=#ffffff;dashed=0;verticalLabelPosition=bottom;verticalAlign=top;align=center;html=1;fontSize=12;fontStyle=0;aspect=fixed;shape=mxgraph.aws4.resourceIcon;resIcon=mxgraph.aws4.workspaces;" vertex="1" parent="oK9KnU9zgvsyeJ7xZBO_-1">
          <mxGeometry x="535" y="50" width="70" height="70" as="geometry" />
        </mxCell>
        <mxCell id="fKNZNQXaBaERY7D5Q5wU-19" value="VPC" style="points=[[0,0],[0.25,0],[0.5,0],[0.75,0],[1,0],[1,0.25],[1,0.5],[1,0.75],[1,1],[0.75,1],[0.5,1],[0.25,1],[0,1],[0,0.75],[0,0.5],[0,0.25]];outlineConnect=0;gradientColor=none;html=1;whiteSpace=wrap;fontSize=12;fontStyle=0;container=1;pointerEvents=0;collapsible=0;recursiveResize=0;shape=mxgraph.aws4.group;grIcon=mxgraph.aws4.group_vpc;strokeColor=#248814;fillColor=none;verticalAlign=top;align=left;spacingLeft=30;fontColor=#AAB7B8;dashed=0;opacity=80;" parent="1" vertex="1">
          <mxGeometry x="600" y="-440" width="620" height="310" as="geometry" />
        </mxCell>
        <mxCell id="ZArKIgMxJLJJzl4LSv2I-2" value="InstanceTerminationRule" style="sketch=0;points=[[0,0,0],[0.25,0,0],[0.5,0,0],[0.75,0,0],[1,0,0],[0,1,0],[0.25,1,0],[0.5,1,0],[0.75,1,0],[1,1,0],[0,0.25,0],[0,0.5,0],[0,0.75,0],[1,0.25,0],[1,0.5,0],[1,0.75,0]];outlineConnect=0;fontColor=#232F3E;gradientColor=#FF4F8B;gradientDirection=north;fillColor=#BC1356;strokeColor=#ffffff;dashed=0;verticalLabelPosition=bottom;verticalAlign=top;align=center;html=1;fontSize=12;fontStyle=0;aspect=fixed;shape=mxgraph.aws4.resourceIcon;resIcon=mxgraph.aws4.eventbridge;" parent="1" vertex="1">
          <mxGeometry x="430" y="-362.25" width="55" height="55" as="geometry" />
        </mxCell>
        <mxCell id="ZArKIgMxJLJJzl4LSv2I-3" style="edgeStyle=orthogonalEdgeStyle;rounded=0;orthogonalLoop=1;jettySize=auto;html=1;fontSize=12;" parent="1" source="ZArKIgMxJLJJzl4LSv2I-4" target="ZArKIgMxJLJJzl4LSv2I-2" edge="1">
          <mxGeometry relative="1" as="geometry" />
        </mxCell>
        <mxCell id="ZArKIgMxJLJJzl4LSv2I-4" value="Terminate Event" style="sketch=0;outlineConnect=0;fontColor=#232F3E;gradientColor=none;fillColor=#B0084D;strokeColor=none;dashed=0;verticalLabelPosition=bottom;verticalAlign=top;align=center;html=1;fontSize=12;fontStyle=0;aspect=fixed;pointerEvents=1;shape=mxgraph.aws4.event;" parent="1" vertex="1">
          <mxGeometry x="230" y="-360" width="50" height="50" as="geometry" />
        </mxCell>
        <mxCell id="ZArKIgMxJLJJzl4LSv2I-5" value="workspaces&lt;br&gt;&amp;nbsp;terminate event" style="edgeStyle=orthogonalEdgeStyle;rounded=0;orthogonalLoop=1;jettySize=auto;html=1;fontSize=12;exitX=0;exitY=0.5;exitDx=0;exitDy=0;exitPerimeter=0;" parent="1" source="4wVRGcLcIKmIq5gL6pOX-1" target="ZArKIgMxJLJJzl4LSv2I-4" edge="1">
          <mxGeometry x="0.1981" relative="1" as="geometry">
            <Array as="points">
              <mxPoint x="255" y="-485" />
            </Array>
            <mxPoint as="offset" />
            <mxPoint x="350" y="-485" as="sourcePoint" />
          </mxGeometry>
        </mxCell>
        <mxCell id="dDT19QIDYoVKKjMxZ3qm-10" value="VPC" style="points=[[0,0],[0.25,0],[0.5,0],[0.75,0],[1,0],[1,0.25],[1,0.5],[1,0.75],[1,1],[0.75,1],[0.5,1],[0.25,1],[0,1],[0,0.75],[0,0.5],[0,0.25]];outlineConnect=0;gradientColor=none;html=1;whiteSpace=wrap;fontSize=12;fontStyle=0;container=1;pointerEvents=0;collapsible=0;recursiveResize=0;shape=mxgraph.aws4.group;grIcon=mxgraph.aws4.group_vpc;strokeColor=#248814;fillColor=none;verticalAlign=top;align=left;spacingLeft=30;fontColor=#AAB7B8;dashed=0;opacity=80;" parent="1" vertex="1">
          <mxGeometry x="310" y="-550" width="160" height="140" as="geometry" />
        </mxCell>
        <mxCell id="AuBCLQnb-2w3E6iwcC4Q-6" value="ADRemoveComputer" style="outlineConnect=0;dashed=0;verticalLabelPosition=bottom;verticalAlign=top;align=center;html=1;shape=mxgraph.aws3.lambda;fillColor=#F58534;gradientColor=none;fontSize=12;" parent="1" vertex="1">
          <mxGeometry x="690" y="-365" width="60" height="60" as="geometry" />
        </mxCell>
        <mxCell id="dDT19QIDYoVKKjMxZ3qm-1" style="edgeStyle=orthogonalEdgeStyle;rounded=0;orthogonalLoop=1;jettySize=auto;html=1;entryX=0;entryY=0.5;entryDx=0;entryDy=0;entryPerimeter=0;" parent="1" source="ZArKIgMxJLJJzl4LSv2I-2" target="AuBCLQnb-2w3E6iwcC4Q-6" edge="1">
          <mxGeometry relative="1" as="geometry" />
        </mxCell>
        <mxCell id="dDT19QIDYoVKKjMxZ3qm-2" value="workspaceId" style="edgeLabel;html=1;align=center;verticalAlign=middle;resizable=0;points=[];" parent="dDT19QIDYoVKKjMxZ3qm-1" vertex="1" connectable="0">
          <mxGeometry x="-0.2686" relative="1" as="geometry">
            <mxPoint as="offset" />
          </mxGeometry>
        </mxCell>
        <mxCell id="dDT19QIDYoVKKjMxZ3qm-7" style="edgeStyle=orthogonalEdgeStyle;rounded=0;orthogonalLoop=1;jettySize=auto;html=1;" parent="1" source="AuBCLQnb-2w3E6iwcC4Q-6" target="dDT19QIDYoVKKjMxZ3qm-5" edge="1">
          <mxGeometry relative="1" as="geometry" />
        </mxCell>
        <mxCell id="il_ZNC18QWdED-G7FHk6-4" value="" style="edgeStyle=orthogonalEdgeStyle;rounded=0;orthogonalLoop=1;jettySize=auto;html=1;entryX=0;entryY=0.5;entryDx=0;entryDy=0;entryPerimeter=0;" parent="1" source="AuBCLQnb-2w3E6iwcC4Q-6" target="il_ZNC18QWdED-G7FHk6-3" edge="1">
          <mxGeometry relative="1" as="geometry">
            <mxPoint x="750" y="-335" as="sourcePoint" />
            <mxPoint x="1080" y="-335" as="targetPoint" />
          </mxGeometry>
        </mxCell>
        <mxCell id="il_ZNC18QWdED-G7FHk6-5" value="Remove Computer" style="edgeLabel;html=1;align=center;verticalAlign=middle;resizable=0;points=[];" parent="il_ZNC18QWdED-G7FHk6-4" vertex="1" connectable="0">
          <mxGeometry x="-0.2355" y="-1" relative="1" as="geometry">
            <mxPoint x="8" y="-11" as="offset" />
          </mxGeometry>
        </mxCell>
      </root>
    </mxGraphModel>
  </diagram>
</mxfile>
